<svg width="25" height="24" viewBox="0 0 25 24" fill="none" xmlns="http://www.w3.org/2000/svg">
<path d="M8.668 21.0562C7.303 19.1082 6.5 16.7382 6.5 14.1792C6.5 10.8652 9.185 8.1792 12.497 8.1792C15.809 8.1792 18.494 10.8652 18.494 14.1792" stroke="#00CBBF" stroke-width="1.5" stroke-linecap="round" stroke-linejoin="round"/>
<path d="M18.82 20.1632C18.712 20.1692 18.606 20.1792 18.497 20.1792C15.185 20.1792 12.5 17.4932 12.5 14.1792" stroke="#00CBBF" stroke-width="1.5" stroke-linecap="round" stroke-linejoin="round"/>
<path d="M13.7488 21.8212C11.2008 20.2322 9.50381 17.4042 9.50381 14.1792C9.50381 12.5222 10.8468 11.1792 12.5028 11.1792C14.1588 11.1792 15.5018 12.5222 15.5018 14.1792C15.5018 15.8362 16.8448 17.1792 18.5008 17.1792C20.1568 17.1792 21.4998 15.8362 21.4998 14.1792C21.4998 9.2082 17.4718 5.1792 12.5038 5.1792C7.53581 5.1792 3.50781 9.2082 3.50781 14.1792C3.50781 15.2872 3.63181 16.3662 3.85981 17.4062" stroke="#00CBBF" stroke-width="1.5" stroke-linecap="round" stroke-linejoin="round"/>
<path d="M20.871 5.9732C18.826 3.6502 15.836 2.1792 12.498 2.1792C9.16 2.1792 6.17 3.6502 4.125 5.9732" stroke="#00CBBF" stroke-width="1.5" stroke-linecap="round" stroke-linejoin="round"/>
</svg>
