<svg width="20" height="20" viewBox="0 0 20 20" fill="none" xmlns="http://www.w3.org/2000/svg">
<path d="M12.1318 11.298C11.5988 12.1967 10.5636 12.6696 9.5354 12.4841C8.50719 12.2987 7.70244 11.4939 7.51699 10.4657C7.33155 9.43754 7.80447 8.40234 8.7031 7.86938" stroke="#D0D0D0" stroke-width="1.5" stroke-linecap="round" stroke-linejoin="round"/>
<path d="M14.9971 14.1635C13.5598 15.2537 11.804 15.8413 10 15.8358C7.01075 15.889 4.24879 14.2461 2.8687 11.594C2.37295 10.5892 2.37295 9.41085 2.8687 8.406C3.5589 7.03152 4.65915 5.90547 6.01727 5.18359" stroke="#D0D0D0" stroke-width="1.5" stroke-linecap="round" stroke-linejoin="round"/>
<path d="M17.0227 11.7789C17.0562 11.7155 17.0997 11.6587 17.1313 11.5941C17.6271 10.5892 17.6271 9.41095 17.1313 8.4061C15.7512 5.75395 12.9892 4.11111 9.99999 4.16434C9.81258 4.16434 9.63041 4.18935 9.4454 4.20154" stroke="#D0D0D0" stroke-width="1.5" stroke-linecap="round" stroke-linejoin="round"/>
<path d="M17.5031 16.6694L3.33054 2.49683" stroke="#D0D0D0" stroke-width="1.5" stroke-linecap="round" stroke-linejoin="round"/>
</svg>
